<svg width="79" height="20" viewBox="0 0 79 20" fill="none" xmlns="http://www.w3.org/2000/svg">
<path d="M2.01273 19.7823C1.45061 19.7823 0.970099 19.5918 0.57118 19.2109C0.190393 18.8118 0 18.322 0 17.7415C0 17.4694 0.0453317 17.2063 0.135995 16.9524C0.244791 16.6984 0.407985 16.4717 0.625578 16.2721L6.77256 10.2585H2.63831C2.29378 10.2585 1.95833 10.2313 1.63194 10.1769C1.32369 10.1043 1.06983 9.9229 0.870369 9.63265C0.670909 9.3424 0.57118 8.87075 0.57118 8.21769C0.57118 7.54649 0.670909 7.07483 0.870369 6.80272C1.06983 6.51247 1.32369 6.34014 1.63194 6.28571C1.95833 6.21315 2.29378 6.17687 2.63831 6.17687H11.1516C11.7318 6.17687 12.2124 6.36735 12.5932 6.7483C12.9739 7.12925 13.1643 7.60998 13.1643 8.19048C13.1643 8.48073 13.1099 8.75283 13.0011 9.0068C12.9105 9.26077 12.7745 9.46939 12.5932 9.63265L6.55497 15.6735H11.478C11.8406 15.6735 12.1761 15.7097 12.4844 15.7823C12.7926 15.8549 13.0374 16.0363 13.2187 16.3265C13.4182 16.6168 13.5179 17.0975 13.5179 17.7687C13.5179 18.4218 13.4182 18.8934 13.2187 19.1837C13.0193 19.4739 12.7654 19.6463 12.4572 19.7007C12.1489 19.7551 11.8134 19.7823 11.4508 19.7823H2.01273Z" fill="url(#paint0_linear_417_229)"/>
<path d="M21.0531 19.7551C20.219 19.7551 19.4302 19.5918 18.6868 19.2653C17.9615 18.9388 17.3268 18.4853 16.7829 17.9048C16.2389 17.3061 15.8128 16.6077 15.5045 15.8095C15.2144 14.9932 15.0693 14.1043 15.0693 13.1429V8.21769C15.0693 7.85488 15.1056 7.51927 15.1781 7.21089C15.2507 6.90249 15.4229 6.64853 15.6949 6.44898C15.985 6.24943 16.4655 6.14966 17.1364 6.14966C17.8074 6.14966 18.2788 6.24943 18.5508 6.44898C18.8409 6.64853 19.0132 6.91156 19.0676 7.23809C19.1401 7.54648 19.1764 7.88209 19.1764 8.2449V13.1429C19.1764 13.6689 19.267 14.1315 19.4484 14.5306C19.6478 14.9116 19.9289 15.2018 20.2915 15.4014C20.6723 15.6009 21.1166 15.7007 21.6243 15.7007C22.1501 15.7007 22.5944 15.6009 22.957 15.4014C23.3378 15.1837 23.628 14.8844 23.8274 14.5034C24.045 14.1224 24.1538 13.6689 24.1538 13.1429V8.19048C24.1538 7.82766 24.1901 7.49206 24.2626 7.18367C24.3351 6.87528 24.5074 6.63039 24.7794 6.44898C25.0695 6.24943 25.55 6.14966 26.2209 6.14966C26.8918 6.14966 27.3633 6.24943 27.6353 6.44898C27.9254 6.64853 28.0977 6.91156 28.1521 7.23809C28.2246 7.54648 28.2609 7.87302 28.2609 8.21769V17.7959C28.2609 18.1406 28.2246 18.4671 28.1521 18.7755C28.0977 19.0658 27.9254 19.3016 27.6353 19.483C27.3451 19.6644 26.8737 19.7551 26.2209 19.7551C25.7313 19.7551 25.3506 19.7007 25.0786 19.5918C24.8066 19.483 24.6071 19.3469 24.4802 19.1837C24.3533 19.0204 24.2717 18.8481 24.2354 18.6667C24.2173 18.4853 24.2082 18.322 24.2082 18.1769L24.5618 17.8775C24.5074 17.9501 24.3895 18.0862 24.2082 18.2857C24.0269 18.4853 23.7821 18.7029 23.4738 18.9388C23.1837 19.1565 22.8392 19.3469 22.4403 19.5102C22.0413 19.6735 21.579 19.7551 21.0531 19.7551Z" fill="url(#paint1_linear_417_229)"/>
<path d="M35.3209 20C34.8313 20 34.2964 19.9456 33.7162 19.8367C33.1541 19.7279 32.601 19.5737 32.057 19.3741C31.513 19.1565 31.0597 18.9116 30.6971 18.6395C30.3344 18.3492 30.1259 18.0227 30.0715 17.6599C30.0352 17.4785 30.0352 17.288 30.0715 17.0884C30.1259 16.8707 30.2166 16.6531 30.3435 16.4354C30.4704 16.1995 30.6245 15.9546 30.8059 15.7007C30.9509 15.5011 31.1141 15.3741 31.2955 15.3197C31.4768 15.2653 31.6853 15.2744 31.921 15.3469C32.2112 15.4014 32.5013 15.5011 32.7914 15.6463C33.0997 15.7732 33.3988 15.9184 33.689 16.0816C33.9972 16.2268 34.3145 16.3628 34.6409 16.4898C34.9673 16.5986 35.3028 16.6531 35.6473 16.6531C36.155 16.6531 36.5449 16.5805 36.8169 16.4354C37.107 16.2721 37.252 16.0544 37.252 15.7823C37.252 15.5828 37.1886 15.4195 37.0616 15.2925C36.9529 15.1655 36.7897 15.0567 36.5721 14.966C36.3726 14.8571 36.1369 14.7664 35.8649 14.6939C35.5929 14.6213 35.2937 14.5488 34.9673 14.4762C34.6591 14.3855 34.3417 14.2948 34.0154 14.2041C33.562 14.0771 33.1269 13.9138 32.7098 13.7143C32.2928 13.5147 31.912 13.2608 31.5674 12.9524C31.2229 12.6258 30.9509 12.2358 30.7515 11.7823C30.552 11.3107 30.4523 10.7392 30.4523 10.068C30.4523 9.17914 30.6608 8.43537 31.0779 7.83674C31.4949 7.2381 32.1024 6.78458 32.9002 6.47619C33.698 6.14966 34.6681 5.98639 35.8105 5.98639C36.1369 5.98639 36.4633 6.00454 36.7897 6.04082C37.116 6.0771 37.4334 6.14059 37.7416 6.23129C38.068 6.322 38.3853 6.43084 38.6936 6.55782C39.0018 6.68481 39.3101 6.839 39.6184 7.02041C40.1623 7.27438 40.4434 7.61905 40.4615 8.05442C40.4797 8.4898 40.3255 8.93424 39.9991 9.38775C39.7997 9.69615 39.5912 9.9229 39.3736 10.068C39.156 10.195 38.9293 10.2313 38.6936 10.1769C38.4035 10.1043 38.0861 9.98639 37.7416 9.82313C37.4152 9.65986 37.0616 9.50567 36.6809 9.36054C36.3182 9.21542 35.9556 9.14286 35.5929 9.14286C35.2846 9.14286 35.0217 9.18821 34.8041 9.27891C34.5865 9.35147 34.4233 9.46032 34.3145 9.60544C34.2058 9.73243 34.1514 9.88662 34.1514 10.068C34.1514 10.3039 34.2148 10.4943 34.3417 10.6395C34.4868 10.7664 34.6772 10.8753 34.9129 10.966C35.1487 11.0567 35.4206 11.1383 35.7289 11.2109C36.0372 11.2834 36.3726 11.356 36.7353 11.4286C37.2248 11.5193 37.7235 11.6463 38.2312 11.8095C38.7571 11.9546 39.2285 12.1723 39.6456 12.4626C40.0807 12.7528 40.4253 13.1429 40.6791 13.6327C40.9511 14.1224 41.0871 14.7664 41.0871 15.5646C41.0871 16.9977 40.5885 18.0952 39.5912 18.8571C38.5939 19.619 37.1704 20 35.3209 20Z" fill="url(#paint2_linear_417_229)"/>
<path d="M49.4476 19.7823C48.5229 19.7823 47.725 19.6825 47.0541 19.483C46.4013 19.2834 45.8573 18.9751 45.4222 18.5578C44.987 18.1406 44.6606 17.6145 44.443 16.9796C44.2435 16.3265 44.1438 15.5556 44.1438 14.6667V3.61905C44.1438 3.25624 44.171 2.92971 44.2254 2.63946C44.2979 2.34921 44.4793 2.11338 44.7694 1.93197C45.0595 1.73243 45.531 1.63265 46.1837 1.63265C46.8365 1.63265 47.308 1.73243 47.5981 1.93197C47.8882 2.13152 48.0605 2.38549 48.1149 2.69388C48.1874 3.00227 48.2237 3.33787 48.2237 3.70068V14.5034C48.2237 14.7936 48.2418 15.0385 48.2781 15.2381C48.3325 15.4195 48.405 15.5556 48.4957 15.6463C48.5863 15.737 48.7132 15.8005 48.8764 15.8367C49.0396 15.873 49.2391 15.8912 49.4748 15.8912C49.8737 15.8912 50.2273 15.9274 50.5356 16C50.8438 16.0726 51.0796 16.2358 51.2428 16.4898C51.4241 16.7438 51.5147 17.1701 51.5147 17.7687C51.5147 18.4218 51.415 18.8934 51.2156 19.1837C51.0161 19.4739 50.7532 19.6463 50.4268 19.7007C50.1185 19.7551 49.7921 19.7823 49.4476 19.7823ZM43.3006 6.39456H46.2925L50.046 6.28571C50.3905 6.28571 50.7169 6.322 51.0252 6.39456C51.3334 6.44898 51.5873 6.62132 51.7867 6.91156C51.9862 7.20181 52.0859 7.68254 52.0859 8.35374C52.0859 8.97052 51.9862 9.42404 51.7867 9.71428C51.6054 10.0045 51.3606 10.195 51.0524 10.2857C50.7441 10.3583 50.4086 10.3946 50.046 10.3946L46.4829 10.3129H43.1918C42.666 10.2948 42.2943 10.1406 42.0767 9.85034C41.8772 9.54195 41.7775 9.03401 41.7775 8.32653C41.7775 7.67347 41.9044 7.19274 42.1583 6.88435C42.4121 6.55782 42.7929 6.39456 43.3006 6.39456Z" fill="url(#paint3_linear_417_229)"/>
<path d="M55.4894 19.8095C54.6553 19.8095 54.0751 19.6463 53.7487 19.3197C53.4223 18.9932 53.2591 18.4308 53.2591 17.6327C53.2591 17.0703 53.3316 16.6258 53.4767 16.2993C53.6217 15.9728 53.8575 15.737 54.1839 15.5918C54.5103 15.4467 54.9454 15.3741 55.4894 15.3741C56.3235 15.3741 56.8947 15.5374 57.203 15.8639C57.5293 16.1905 57.6925 16.771 57.6925 17.6054C57.6925 18.1497 57.62 18.585 57.4749 18.9116C57.348 19.2381 57.1214 19.4649 56.795 19.5918C56.4686 19.737 56.0334 19.8095 55.4894 19.8095Z" fill="url(#paint4_linear_417_229)"/>
<path d="M70.5009 19.7551C69.83 19.7551 69.3314 19.6372 69.005 19.4014C68.6967 19.1655 68.5426 18.8753 68.5426 18.5306L68.8146 18.068C68.7058 18.2494 68.4973 18.4762 68.189 18.7483C67.8808 19.0023 67.4818 19.2381 66.9923 19.4558C66.5027 19.6553 65.8952 19.7551 65.1699 19.7551C64.3358 19.7551 63.538 19.5737 62.7764 19.2109C62.033 18.8481 61.3711 18.3492 60.7909 17.7143C60.2106 17.0612 59.7483 16.3265 59.4037 15.5102C59.0774 14.6939 58.9142 13.8322 58.9142 12.9252C58.9142 12.0363 59.0774 11.1927 59.4037 10.3946C59.7483 9.57823 60.2106 8.86168 60.7909 8.2449C61.3893 7.60998 62.0602 7.11111 62.8036 6.7483C63.5471 6.38549 64.3358 6.20408 65.1699 6.20408C65.8408 6.20408 66.412 6.30386 66.8835 6.5034C67.3549 6.68481 67.7448 6.90249 68.053 7.15646C68.3794 7.41043 68.6242 7.65533 68.7874 7.89116L68.5698 7.5102C68.5517 7.07483 68.6967 6.7483 69.005 6.53061C69.3314 6.29478 69.8391 6.17687 70.5281 6.17687C71.1809 6.17687 71.6433 6.27664 71.9153 6.47619C72.2054 6.67574 72.3777 6.93878 72.4321 7.26531C72.5046 7.59184 72.5409 7.93651 72.5409 8.29932V17.6871C72.5409 18.0317 72.5046 18.3673 72.4321 18.6939C72.3777 19.0204 72.2054 19.2834 71.9153 19.483C71.6433 19.6644 71.1719 19.7551 70.5009 19.7551ZM65.7683 15.7007C66.2398 15.7007 66.6659 15.5828 67.0467 15.3469C67.4456 15.093 67.7538 14.7574 67.9714 14.3401C68.2072 13.9229 68.325 13.4603 68.325 12.9524C68.325 12.4263 68.2072 11.9637 67.9714 11.5646C67.7357 11.1474 67.4184 10.8209 67.0195 10.585C66.6205 10.3311 66.1854 10.2041 65.7139 10.2041C65.1881 10.2041 64.7166 10.3311 64.2996 10.585C63.9006 10.839 63.5743 11.1746 63.3204 11.5918C63.0847 12.0091 62.9668 12.4807 62.9668 13.0068C62.9668 13.4966 63.0847 13.9501 63.3204 14.3673C63.5743 14.7664 63.9097 15.093 64.3268 15.3469C64.7619 15.5828 65.2425 15.7007 65.7683 15.7007Z" fill="url(#paint5_linear_417_229)"/>
<path d="M76.9057 19.7823C76.2348 19.7823 75.7542 19.6916 75.4641 19.5102C75.1921 19.3107 75.0199 19.0567 74.9473 18.7483C74.893 18.4218 74.8658 18.0862 74.8658 17.7415V8.2449C74.8658 7.88209 74.893 7.54648 74.9473 7.23809C75.0199 6.92971 75.2012 6.68481 75.4913 6.5034C75.7814 6.30386 76.262 6.20408 76.9329 6.20408C77.5856 6.20408 78.048 6.30386 78.32 6.5034C78.6101 6.70295 78.7824 6.95692 78.8368 7.26531C78.9093 7.5737 78.9456 7.91837 78.9456 8.29932V17.7687C78.9456 18.1134 78.9093 18.449 78.8368 18.7755C78.7824 19.0839 78.6101 19.3288 78.32 19.5102C78.048 19.6916 77.5766 19.7823 76.9057 19.7823ZM76.9057 4.21769C76.2166 4.21769 75.7271 4.11791 75.4369 3.91837C75.1468 3.71882 74.9655 3.45578 74.8929 3.12925C74.8385 2.80272 74.8113 2.45805 74.8113 2.09524C74.8113 1.71429 74.8476 1.36961 74.9201 1.06123C74.9927 0.734695 75.174 0.480726 75.4641 0.299321C75.7542 0.0997736 76.2438 0 76.9329 0C77.6038 0 78.0843 0.0997736 78.3744 0.299321C78.6645 0.498867 78.8368 0.761905 78.8912 1.08844C78.9637 1.41497 79 1.75964 79 2.12245C79 2.48526 78.9637 2.82993 78.8912 3.15646C78.8368 3.48299 78.6645 3.74603 78.3744 3.94558C78.0843 4.12698 77.5947 4.21769 76.9057 4.21769Z" fill="url(#paint6_linear_417_229)"/>
<defs>
<linearGradient id="paint0_linear_417_229" x1="-0.59838" y1="-6.53946" x2="81.125" y2="-6.22261" gradientUnits="userSpaceOnUse">
<stop stop-color="#FBC400"/>
<stop offset="1" stop-color="#E96224"/>
</linearGradient>
<linearGradient id="paint1_linear_417_229" x1="-0.59838" y1="-6.53946" x2="81.125" y2="-6.22261" gradientUnits="userSpaceOnUse">
<stop stop-color="#FBC400"/>
<stop offset="1" stop-color="#E96224"/>
</linearGradient>
<linearGradient id="paint2_linear_417_229" x1="-0.59838" y1="-6.53946" x2="81.125" y2="-6.22261" gradientUnits="userSpaceOnUse">
<stop stop-color="#FBC400"/>
<stop offset="1" stop-color="#E96224"/>
</linearGradient>
<linearGradient id="paint3_linear_417_229" x1="-0.59838" y1="-6.53946" x2="81.125" y2="-6.22261" gradientUnits="userSpaceOnUse">
<stop stop-color="#FBC400"/>
<stop offset="1" stop-color="#E96224"/>
</linearGradient>
<linearGradient id="paint4_linear_417_229" x1="-0.59838" y1="-6.53946" x2="81.125" y2="-6.22261" gradientUnits="userSpaceOnUse">
<stop stop-color="#FBC400"/>
<stop offset="1" stop-color="#E96224"/>
</linearGradient>
<linearGradient id="paint5_linear_417_229" x1="-0.59838" y1="-6.53946" x2="81.125" y2="-6.22261" gradientUnits="userSpaceOnUse">
<stop stop-color="#FBC400"/>
<stop offset="1" stop-color="#E96224"/>
</linearGradient>
<linearGradient id="paint6_linear_417_229" x1="-0.59838" y1="-6.53946" x2="81.125" y2="-6.22261" gradientUnits="userSpaceOnUse">
<stop stop-color="#FBC400"/>
<stop offset="1" stop-color="#E96224"/>
</linearGradient>
</defs>
</svg>
